<?xml version="1.0" encoding="UTF-8" ?>
<!DOCTYPE svg PUBLIC "-//W3C//DTD SVG 1.1//EN" "http://www.w3.org/Graphics/SVG/1.1/DTD/svg11.dtd">
<svg width="1024pt" height="1024pt" viewBox="105 105 800 800"
 version="1.1" xmlns="http://www.w3.org/2000/svg">
    <style>
    path {
      /* Color por defecto (para tema claro) */
      fill: #000000; 
    }
    
    @media (prefers-color-scheme: dark) {
      path {
        /* Color para tema oscuro */
        fill: #FFFFFF; 
      }
    }
  </style>
    <g id="#000000ff">
        <path fill="#000000" opacity="1.00" d=" M 502.99 117.96 C 505.30 117.35 507.60 116.58 510.00 116.41 C 512.91 116.60 515.66 117.69 518.46 118.42 C 609.62 142.88 700.44 168.60 791.60 193.02 C 788.34 209.22 783.52 225.29 783.37 241.94 C 782.68 258.50 785.44 275.34 792.67 290.34 C 800.04 306.00 812.82 319.00 828.32 326.68 C 845.02 334.94 863.83 338.11 882.35 337.77 C 882.70 345.26 881.74 352.73 881.44 360.21 C 876.83 435.39 867.78 510.80 846.36 583.22 C 829.70 640.17 804.78 695.30 768.48 742.51 C 737.19 783.70 698.27 819.02 654.45 846.49 C 611.62 873.41 564.79 894.16 515.77 906.81 C 513.01 907.62 510.10 907.64 507.35 906.81 C 476.06 899.05 445.91 887.18 416.94 873.09 C 388.10 859.14 360.76 842.14 335.26 822.75 C 281.22 781.55 237.73 727.01 208.14 665.94 C 189.40 626.59 176.02 584.85 166.34 542.40 C 151.13 476.64 144.49 409.23 140.87 341.94 C 140.84 340.42 140.97 338.90 141.09 337.40 C 161.25 338.17 181.86 334.43 199.65 324.64 C 216.36 315.25 229.13 299.32 235.04 281.11 C 242.31 259.19 241.39 235.43 236.63 213.09 C 235.51 206.10 233.14 199.38 232.08 192.38 C 285.42 178.41 338.39 163.07 391.57 148.51 C 428.64 138.07 465.79 127.91 502.99 117.96 M 274.68 219.06 C 274.84 226.39 276.71 233.58 276.64 240.94 C 277.86 271.16 270.06 302.33 251.65 326.67 C 234.60 349.81 208.03 364.53 180.23 370.45 C 179.81 377.97 181.14 385.43 181.66 392.91 C 187.33 460.26 197.42 527.73 219.04 591.98 C 230.30 624.24 244.19 655.71 262.23 684.79 C 279.82 713.32 300.70 739.87 324.80 763.19 C 351.11 788.96 381.26 810.65 413.38 828.58 C 442.75 844.87 473.76 858.23 505.86 868.15 C 508.42 868.87 511.14 869.81 513.79 868.90 C 532.21 863.87 550.18 857.27 567.75 849.81 C 623.70 825.67 675.37 790.68 716.39 745.42 C 736.01 723.49 753.29 699.47 767.90 673.94 C 784.70 644.35 798.04 612.82 808.15 580.35 C 824.78 527.17 834.05 471.96 839.77 416.62 C 841.38 401.28 843.05 385.92 843.68 370.50 C 818.81 365.39 795.12 352.94 778.02 334.00 C 767.95 322.66 759.95 309.45 754.97 295.11 C 748.17 275.50 745.50 254.43 747.41 233.76 C 747.75 229.00 748.62 224.31 748.81 219.54 C 671.39 198.74 594.26 176.86 516.83 156.11 C 513.66 155.35 510.37 153.91 507.11 155.02 C 429.46 175.75 352.15 197.72 274.68 219.06 Z" />
        <path fill="#000000" opacity="1.00" d=" M 507.40 290.58 C 524.12 286.77 541.74 290.97 556.21 299.76 C 564.89 305.06 573.36 311.32 579.16 319.81 C 582.45 324.91 584.15 330.94 584.56 336.97 C 585.39 351.31 585.15 365.68 585.21 380.03 C 585.14 382.28 585.32 384.86 583.49 386.51 C 575.08 395.76 566.66 405.00 558.13 414.13 C 555.39 417.11 552.32 420.25 551.66 424.42 C 550.98 429.60 551.47 434.84 551.47 440.05 C 552.10 461.38 551.81 482.72 551.86 504.06 C 551.87 505.81 551.51 507.53 551.12 509.23 C 528.84 509.06 506.54 509.44 484.27 508.97 C 483.97 482.63 484.22 456.29 484.08 429.95 C 484.36 422.48 478.94 416.84 474.50 411.52 C 467.35 403.04 459.62 395.07 452.08 386.94 C 450.64 385.24 448.85 383.45 448.96 381.04 C 448.73 368.70 449.04 356.34 448.79 343.99 C 448.76 339.40 448.28 334.57 450.26 330.26 C 454.05 321.68 460.98 315.02 468.01 309.04 C 479.20 299.46 493.27 294.09 507.40 290.58 M 487.24 308.11 C 476.66 313.16 466.96 320.64 460.64 330.64 C 458.45 334.01 458.72 338.17 458.68 342.01 C 458.80 353.69 458.62 365.37 458.90 377.05 C 458.73 379.74 460.71 381.71 462.35 383.57 C 469.17 391.10 476.08 398.55 483.03 405.97 C 486.97 410.27 490.50 415.16 492.12 420.85 C 494.07 427.04 493.62 433.60 493.64 440.00 C 493.62 455.33 493.61 470.66 493.64 486.00 C 493.67 490.56 493.35 495.15 494.00 499.69 C 509.95 499.67 525.89 499.58 541.84 499.70 C 542.20 476.47 541.76 453.22 541.94 429.99 C 542.06 423.81 543.15 417.18 547.41 412.43 C 555.40 403.41 563.42 394.41 571.61 385.57 C 572.99 383.87 575.04 382.34 575.23 380.00 C 575.56 374.67 575.19 369.33 575.31 364.00 C 575.13 352.93 576.25 341.60 573.12 330.82 C 570.40 322.73 563.93 316.60 557.03 311.93 C 547.37 305.03 536.09 299.80 524.08 299.30 C 511.22 298.35 498.53 302.20 487.24 308.11 Z" />
        <path fill="#000000" opacity="1.00" d=" M 447.28 449.22 C 451.46 447.23 455.57 445.03 460.04 443.72 C 460.65 458.00 461.76 472.26 462.60 486.53 C 462.90 493.66 465.04 500.58 467.92 507.07 C 472.38 516.98 481.71 524.28 492.16 526.97 C 500.53 529.60 509.37 528.80 518.00 528.87 C 525.84 528.71 534.02 529.64 541.42 526.40 C 552.00 522.03 562.90 515.97 568.64 505.62 C 572.65 498.79 574.25 490.89 575.11 483.11 C 575.69 477.50 576.16 471.73 574.66 466.22 C 572.73 459.02 572.67 451.53 572.27 444.14 C 579.31 447.05 586.78 449.39 592.90 454.07 C 595.76 456.11 599.04 457.41 602.24 458.81 C 618.16 465.96 633.69 473.94 649.32 481.67 C 656.37 485.25 663.43 488.82 670.30 492.72 C 674.46 494.90 675.81 499.87 677.16 504.01 C 676.45 508.29 671.16 509.01 668.05 511.10 C 623.56 535.21 579.52 560.18 534.66 583.63 C 530.13 585.96 524.92 585.46 520.01 585.47 C 515.00 585.38 509.98 585.61 504.98 585.34 C 499.33 585.09 494.40 582.07 489.56 579.46 C 454.87 560.87 420.48 541.70 385.71 523.26 C 371.09 515.10 356.01 507.71 341.72 498.98 C 344.67 496.97 348.00 495.65 351.25 494.21 C 383.38 479.46 415.27 464.21 447.28 449.22 M 427.61 466.56 C 405.52 476.80 383.57 487.38 361.29 497.22 C 359.71 497.91 358.22 498.80 356.75 499.71 C 369.88 507.27 383.46 514.02 396.78 521.24 C 412.48 529.92 428.38 538.21 444.04 546.95 C 460.34 556.10 476.97 564.65 493.25 573.86 C 496.92 575.85 500.66 578.25 504.99 578.35 C 509.98 578.59 514.99 578.30 519.99 578.41 C 524.51 578.39 529.35 578.92 533.45 576.56 C 575.91 553.80 618.04 530.40 660.30 507.27 C 663.42 505.27 667.51 504.36 669.61 501.09 C 664.44 496.62 657.99 494.14 652.01 490.99 C 632.86 481.28 613.65 471.67 594.10 462.79 C 589.74 460.78 586.38 457.07 581.80 455.51 C 582.74 463.98 584.00 472.50 583.07 481.04 C 581.86 493.09 579.01 505.59 571.22 515.22 C 564.62 523.74 554.60 528.36 545.29 533.24 C 539.07 536.55 531.83 536.22 525.00 536.35 C 516.98 536.25 508.94 536.64 500.93 535.98 C 489.86 535.23 479.18 530.42 470.82 523.21 C 462.59 516.00 458.09 505.49 456.13 494.92 C 454.50 481.59 454.33 468.13 453.75 454.72 C 444.73 457.92 436.38 462.73 427.61 466.56 Z" />
        <path fill="#000000" opacity="1.00" d=" M 687.35 529.36 C 688.90 528.43 690.58 527.75 692.31 527.20 C 694.37 531.77 696.86 536.22 697.93 541.17 C 700.37 552.50 703.05 563.79 706.15 574.97 C 709.96 587.44 704.33 602.40 692.93 608.89 C 658.83 626.87 625.66 646.53 591.55 664.49 C 575.78 672.95 560.00 681.42 544.67 690.67 C 539.32 693.72 533.23 695.58 527.05 695.53 C 520.01 695.54 512.98 695.67 505.94 695.68 C 500.08 695.85 495.01 692.57 489.95 690.09 C 451.41 670.61 413.09 650.72 374.39 631.56 C 368.01 628.30 361.50 625.28 355.26 621.77 C 352.48 620.28 351.54 616.78 348.64 615.46 C 341.06 611.44 333.33 607.62 326.23 602.77 C 319.83 598.40 315.28 590.86 315.74 582.97 C 316.12 575.99 319.65 569.79 322.69 563.68 C 326.18 557.01 327.80 549.60 330.39 542.57 C 332.27 537.76 332.25 532.55 332.15 527.48 C 336.78 529.00 341.01 531.45 345.38 533.56 C 360.61 541.25 376.51 547.51 391.72 555.25 C 428.01 573.45 463.90 592.45 500.03 610.98 C 506.55 614.05 513.99 613.26 520.99 613.31 C 525.74 613.33 530.29 611.75 534.40 609.46 C 569.59 591.30 604.69 572.96 639.92 554.87 C 655.82 546.54 671.82 538.38 687.35 529.36 M 655.62 554.60 C 619.06 573.80 582.28 592.56 545.70 611.73 C 539.62 614.73 533.81 618.80 526.96 619.82 C 520.33 620.59 513.61 620.50 506.97 619.93 C 500.89 619.45 495.38 616.64 490.10 613.80 C 459.34 597.44 428.20 581.83 397.33 565.68 C 378.34 555.72 358.14 548.30 339.17 538.28 C 336.89 546.14 334.22 553.87 331.58 561.61 C 328.86 569.43 323.26 576.43 323.07 584.98 C 322.89 590.48 327.10 594.80 331.39 597.61 C 338.66 602.21 346.18 606.42 353.90 610.19 C 357.44 611.80 359.10 615.62 362.28 617.67 C 408.13 640.25 453.45 663.92 499.11 686.86 C 503.76 689.08 509.01 688.71 514.01 688.71 C 521.11 688.57 528.32 689.04 535.28 687.36 C 540.94 686.06 545.28 681.94 550.30 679.28 C 567.60 669.49 585.08 660.00 602.58 650.57 C 620.21 640.90 637.63 630.85 655.35 621.33 C 665.95 615.13 676.84 609.46 687.72 603.77 C 696.58 599.18 701.86 588.30 699.44 578.53 C 697.86 572.15 696.01 565.84 694.57 559.42 C 692.70 551.76 691.58 543.91 689.10 536.42 C 677.90 542.39 667.01 548.96 655.62 554.60 Z" />
    </g>
    <g id="#cfb46fff">
        <path fill="#cfb46f" opacity="1.00" d=" M 487.24 308.11 C 498.53 302.20 511.22 298.35 524.08 299.30 C 536.09 299.80 547.37 305.03 557.03 311.93 C 563.93 316.60 570.40 322.73 573.12 330.82 C 576.25 341.60 575.13 352.93 575.31 364.00 C 575.19 369.33 575.56 374.67 575.23 380.00 C 575.04 382.34 572.99 383.87 571.61 385.57 C 563.42 394.41 555.40 403.41 547.41 412.43 C 543.15 417.18 542.06 423.81 541.94 429.99 C 541.76 453.22 542.20 476.47 541.84 499.70 C 525.89 499.58 509.95 499.67 494.00 499.69 C 493.35 495.15 493.67 490.56 493.64 486.00 C 493.61 470.66 493.62 455.33 493.64 440.00 C 493.62 433.60 494.07 427.04 492.12 420.85 C 490.50 415.16 486.97 410.27 483.03 405.97 C 476.08 398.55 469.17 391.10 462.35 383.57 C 460.71 381.71 458.73 379.74 458.90 377.05 C 458.62 365.37 458.80 353.69 458.68 342.01 C 458.72 338.17 458.45 334.01 460.64 330.64 C 466.96 320.64 476.66 313.16 487.24 308.11 Z" />
        <path fill="#cfb46f" opacity="1.00" d=" M 427.61 466.56 C 436.38 462.73 444.73 457.92 453.75 454.72 C 454.33 468.13 454.50 481.59 456.13 494.92 C 458.09 505.49 462.59 516.00 470.82 523.21 C 479.18 530.42 489.86 535.23 500.93 535.98 C 508.94 536.64 516.98 536.25 525.00 536.35 C 531.83 536.22 539.07 536.55 545.29 533.24 C 554.60 528.36 564.62 523.74 571.22 515.22 C 579.01 505.59 581.86 493.09 583.07 481.04 C 584.00 472.50 582.74 463.98 581.80 455.51 C 586.38 457.07 589.74 460.78 594.10 462.79 C 613.65 471.67 632.86 481.28 652.01 490.99 C 657.99 494.14 664.44 496.62 669.61 501.09 C 667.51 504.36 663.42 505.27 660.30 507.27 C 618.04 530.40 575.91 553.80 533.45 576.56 C 529.35 578.92 524.51 578.39 519.99 578.41 C 514.99 578.30 509.98 578.59 504.99 578.35 C 500.66 578.25 496.92 575.85 493.25 573.86 C 476.97 564.65 460.34 556.10 444.04 546.95 C 428.38 538.21 412.48 529.92 396.78 521.24 C 383.46 514.02 369.88 507.27 356.75 499.71 C 358.22 498.80 359.71 497.91 361.29 497.22 C 383.57 487.38 405.52 476.80 427.61 466.56 Z" />
        <path fill="#cfb46f" opacity="1.00" d=" M 655.62 554.60 C 667.01 548.96 677.90 542.39 689.10 536.42 C 691.58 543.91 692.70 551.76 694.57 559.42 C 696.01 565.84 697.86 572.15 699.44 578.53 C 701.86 588.30 696.58 599.18 687.72 603.77 C 676.84 609.46 665.95 615.13 655.35 621.33 C 637.63 630.85 620.21 640.90 602.58 650.57 C 585.08 660.00 567.60 669.49 550.30 679.28 C 545.28 681.94 540.94 686.06 535.28 687.36 C 528.32 689.04 521.11 688.57 514.01 688.71 C 509.01 688.71 503.76 689.08 499.11 686.86 C 453.45 663.92 408.13 640.25 362.28 617.67 C 359.10 615.62 357.44 611.80 353.90 610.19 C 346.18 606.42 338.66 602.21 331.39 597.61 C 327.10 594.80 322.89 590.48 323.07 584.98 C 323.26 576.43 328.86 569.43 331.58 561.61 C 334.22 553.87 336.89 546.14 339.17 538.28 C 358.14 548.30 378.34 555.72 397.33 565.68 C 428.20 581.83 459.34 597.44 490.10 613.80 C 495.38 616.64 500.89 619.45 506.97 619.93 C 513.61 620.50 520.33 620.59 526.96 619.82 C 533.81 618.80 539.62 614.73 545.70 611.73 C 582.28 592.56 619.06 573.80 655.62 554.60 Z" />
    </g>
</svg>